<?xml version="1.0" encoding="UTF-8"?>
<svg width="128" height="128" fill-rule="evenodd" overflow="visible" stroke-linejoin="bevel" stroke-width=".501" version="1.1" viewBox="0 0 96 96" xmlns="http://www.w3.org/2000/svg"><g id="Document" transform="matrix(.14672 0 0 -.14672 -.068668 18.121)" font-family="'Times New Roman'" font-size="16px" stroke="#000"><g id="Spread" transform="translate(0,-406.08)"><g><g id="Group" fill-rule="nonzero" stroke="none" stroke-miterlimit="79.84" stroke-width=".25"><g><path d="m15.113 124.31 58.597 63.479-73.242 29.298 73.242 29.292-58.597 68.361 112.31-46.389c8.791 28.326 27.18 57.298 55.18 86.916 27.993 29.625 76.173 46.389 144.53 50.292 69.014-3.903 117.51-20.667 145.51-50.292 27.993-29.618 46.389-58.59 55.18-86.916l112.3 46.389-58.59-68.361 73.243-29.292-73.243-29.298 58.59-63.479-106.44 30.277c-7.16-37.437-26.125-72.673-56.882-105.72-30.764-33.034-80.486-49.555-149.17-49.562-68.681 7e-3 -118.4 16.528-149.17 49.562-30.764 33.042-49.722 68.278-56.882 105.72zm229.49-23.438c11.722-3.903 24.743-5.854 39.062-5.854v102.53l-39.062-9.763zm-53.708 20.507c8.465-6.833 19.854-11.715 34.18-14.646v75.194l-34.18-7.812zm-43.945 41.993c5.854-10.41 13.993-19.854 24.41-28.319v34.18zm263.67-62.5v86.917l-39.062 9.763v-102.53c14.326 0 27.347 1.951 39.062 5.854zm53.708 20.507v52.736l-34.18 7.812v-75.194c14.326 2.931 25.722 7.813 34.18 14.646zm43.945 41.993-24.417 5.861v-34.18c10.417 8.465 18.556 17.909 24.417 28.319zm-202.15 122.07c-0.326 12.695-5.451 24.007-15.381 33.938-9.924 9.93-21.889 14.895-35.889 14.895-14.327 0-26.452-5.048-36.375-15.139-9.931-10.09-14.896-22.131-14.896-36.131 0-14.327 4.965-26.452 14.896-36.375 9.923-9.931 22.048-14.896 36.375-14.896 14 0 25.472 4.396 34.423 13.18 8.952 8.792 14.243 17.091 15.868 24.903 5.209 0.653 8.952 3.424 11.229 8.306 2.278 4.882 6.021 7.319 11.23 7.319 5.208 0 8.951-2.437 11.236-7.319 2.277-4.882 6.02-7.653 11.229-8.306 1.625-7.812 6.916-16.111 15.868-24.903 8.951-8.784 20.423-13.18 34.423-13.18 14.32 0 26.445 4.965 36.375 14.896 9.931 9.923 14.896 22.048 14.896 36.375 0 14-4.965 26.041-14.896 36.131-9.93 10.091-22.055 15.139-36.375 15.139-14 0-25.958-4.965-35.888-14.895-9.924-9.931-15.056-21.403-15.382-34.424-7.16 11.396-14.32 17.09-21.486 17.09-7.16 0-14.32-5.534-21.48-16.604zm-2.93-92.77v-99.611c9.437 7e-3 17.576 7e-3 24.41 0 6.84 7e-3 14.979 7e-3 24.416 0v99.611l-24.416-19.528zm-170.9-34.181-5.855-1.951c9.764-16.271 21.479-31.896 35.153-46.875 16.924-20.834 28.806-35.813 35.646-44.924 6.833-9.118 15.625-18.555 26.368-28.319s22.625-17.903 35.646-24.417l29.291 56.646c16.278-1.951 29.299-2.931 39.063-2.931 9.77 0 22.791 0.98 39.062 2.931l29.298-56.646c13.021 6.514 24.903 14.653 35.646 24.417s19.535 19.201 26.368 28.319c6.834 9.111 18.715 24.09 35.646 44.924 13.674 14.979 25.389 30.604 35.153 46.875l-5.861 1.951c-22.785-33.201-45.084-53.951-66.889-62.257-21.813-8.298-39.875-13.666-54.201-16.111-14.32-2.437-39.063-3.66-74.222-3.66-35.153 0-59.889 1.223-74.216 3.66-14.319 2.445-32.388 7.813-54.201 16.111-21.805 8.306-44.104 29.056-66.895 62.257z"/></g></g></g></g></g></svg>
